inDegrees=yes
name=ik_MT_2026-09-03_14h52_01210270-000-000_orientations
DataType=double
version=3
OpenSimVersion=4.5
endheader
time	pelvis_tilt	pelvis_list	pelvis_rotation	pelvis_tx	pelvis_ty	pelvis_tz	hip_flexion_r	hip_adduction_r	hip_rotation_r	knee_angle_r	knee_angle_r_beta	ankle_angle_r	subtalar_angle_r	mtp_angle_r	hip_flexion_l	hip_adduction_l	hip_rotation_l	knee_angle_l	knee_angle_l_beta	ankle_angle_l	subtalar_angle_l	mtp_angle_l	lumbar_extension	lumbar_bending	lumbar_rotation	arm_flex_r	arm_add_r	arm_rot_r	elbow_flex_r	pro_sup_r	wrist_flex_r	wrist_dev_r	arm_flex_l	arm_add_l	arm_rot_l	elbow_flex_l	pro_sup_l	wrist_flex_l	wrist_dev_l
50.9	-2.060580563850737	20.42971363727406	-216.0760889679145	0	0.9399999999999999	0	-6.165417594175168	13.49215116600718	-493.4533774314465	-6.202287390282786	-0.1082503361153612	2.110356844712748	0	0	-31.45555804451723	2.368426284569309	492.9695309145973	8.526401588562587	0.148813781067692	-17.02451141816105	0	0	89.98448962139413	89.99733106257905	89.98448913011821	89.9929760316257	76.60901257654403	89.99390442427699	7.417514028274615	45.00000025534055	0	0	89.99295190982318	-79.89308543915641	-89.993750915455	0.08344380553896368	45.00000025534055	0	0
50.925	-0.9999767115295072	20.20042527009944	-216.6324464967446	0	0.9399999999999999	0	-4.238149843121091	14.03007659268317	-493.9763759789351	-5.800557227520916	-0.1012388220705938	3.169460711191319	0	0	-32.28791860448202	-0.4767822541333633	494.0758557923381	1.451325027359046	0.02533040024401213	-19.75547142968641	0	0	89.98451707724251	89.9973489440133	89.98451678374556	89.99311937960961	77.52094228555389	89.99395941386435	7.597109871434435	45.00000025534055	0	0	89.99310010270921	-80.89960998178238	-89.99380027766928	0.08182594735573484	45.00000025534055	0	0
50.95	-0.1097867913011939	20.08785141136549	-217.1298445061372	0	0.9399999999999999	0	-2.584685877564722	14.4570340308274	-494.6513766121405	-4.995829165904623	-0.0871936678121977	4.486708154375161	0	0	-33.88735453997727	-2.422602745133823	496.0551179612819	-3.20404107904185	-0.05592106619843216	-21.56106201176756	0	0	89.98453165947232	89.99736626866803	89.9845312882628	89.99323756090497	78.18804787873346	89.99401806601421	7.813193804362244	45.00000025534055	0	0	89.99322175322719	-81.68227598438682	-89.99385303786727	0.08051521902369702	45.00000025534055	0	0
50.975	0.7182595092405768	19.9445347549644	-217.6164271836613	0	0.9399999999999999	0	-1.063684556862219	14.65047496517581	-495.3220430247489	-3.74343654304076	-0.06533529301553569	5.943684331601226	0	0	-35.3526917684342	-3.704570431303001	498.2057719698701	-5.766718874131301	-0.1006482313904917	-22.56527265014564	0	0	89.98453422105466	89.9973845240194	89.98453384828895	89.9933530195688	78.926393730215	89.99407232426051	7.921383074359399	45.00000025534055	0	0	89.99333983783441	-82.43688225074426	-89.9939037828842	0.07895822257950272	45.00000025534055	0	0
51	0.8695537252895893	19.94338170417105	-217.8712489686354	0	0.9399999999999999	0	-0.00656164608712006	14.54539702036303	-495.9380200752451	-2.317894812821576	-0.04045489619863417	7.562438227716773	0	0	-36.58015121241627	-4.682251389070647	499.7418766916009	-6.040001303102301	-0.1054179095638831	-22.95337711940081	0	0	89.98433359223337	89.99739832185651	89.98433322165596	89.99341380508076	78.99339416991121	89.99411669759805	7.943766098098753	45.00000025534055	0	0	89.99340199193752	-82.54970792187301	-89.9939493840088	0.07838868733374578	45.00000025534055	0	0
51.025	0.8555917946759146	19.93803504369925	-217.9087768923247	0	0.9399999999999999	0	1.128160551833067	14.27007453775781	-496.4665828023645	-0.7661684861692609	-0.01337216270867424	9.266137818442052	0	0	-35.65730139970277	-5.973180529765709	501.6962137736883	-5.438262967722008	-0.09491559437602715	-22.45530701013686	0	0	89.98393119728938	89.99740669300218	89.98393042360698	89.99342139555671	78.96720444542767	89.99412339534203	7.983488911554273	45.00000025534055	0	0	89.99340738221416	-82.53118202374931	-89.99395604014821	0.07895560199167437	45.00000025534055	0	0
51.05	1.442317086139977	19.82403099652287	-217.9441106145294	0	0.9399999999999999	0	2.942912644876138	14.04541693023304	-497.0622771540566	1.064132927082119	0.01857262325646772	10.87317175411834	0	0	-32.64394894306508	-6.541605343084794	503.479856965506	-4.186511047996176	-0.07306840195865164	-20.72240633379151	0	0	89.98341159424488	89.99741532241583	89.98341170485605	89.99342905614013	79.52161400274379	89.99410258071407	8.080620133262995	45.00000025534055	0	0	89.99341910938558	-83.13513501160732	-89.99392697929055	0.07750369305786529	45.00000025534055	0	0
51.075	2.387151469736235	19.55641329756474	-217.966012583543	0	0.9399999999999999	0	5.320668233047311	13.68371681483688	-497.9058993405636	3.055058694424302	0.0533208330593834	12.21637504766923	0	0	-31.04632449885728	-6.103161178130321	505.1773926279975	-3.367657591357307	-0.05877671304896675	-21.36383065929225	0	0	89.9828482436739	89.99742283247615	89.98284766895128	89.99343828035475	80.45701327934043	89.99405866515882	8.226366374753034	45.00000025534055	0	0	89.99343143871639	-84.15257019016447	-89.99387220915906	0.07619005398843942	45.00000025534055	0	0
51.1	2.189657088806258	19.60582739470969	-217.8750578235301	0	0.9399999999999999	0	6.666366427555984	12.69126594931123	-498.7053854810451	5.317783407511476	0.09281282936899861	12.97800207471081	0	0	-31.63730713797885	-5.05393989747492	509.5710361035916	-1.742071363834176	-0.03040488110361445	-22.7650800881374	0	0	89.98217176408868	89.99741758898531	89.98217147603161	89.99341738147754	80.3261975455235	89.99404865724333	8.152334280745565	45.00000025534055	0	0	89.99341104564799	-83.92491961722519	-89.99386417638637	0.07613983707547438	45.00000025534055	0	0
51.125	0.946258181596765	19.73142750574489	-217.7692914713532	0	0.9399999999999999	0	6.686481462148031	10.65183633184366	-499.3890610094943	8.562168982240108	0.1494380398522218	12.78060412892886	0	0	-32.36547803861104	-4.131656388418238	510.1582339120313	1.248545807636831	0.02179123520523447	-22.84906042673771	0	0	89.98159856476765	89.99740663541665	89.98159810104767	89.99339865078315	79.25597185837776	89.99408372324187	7.86186521518152	45.00000025534055	0	0	89.99338683548359	-82.74981305945595	-89.99391702790781	0.07845761670806017	45.00000025534055	0	0
51.15	-0.5814758618735471	20.03309820374359	-217.5439348993354	0	0.9399999999999999	0	5.395870003922657	7.872293299619446	-500.784193862825	13.70368970522063	0.2391745050277511	11.47028040029469	0	0	-32.11267883440995	-3.875754388056122	509.6103931715511	3.243662828521965	0.05661259618226052	-21.97932308860629	0	0	89.98100783382876	89.99739145566532	89.98100737876459	89.99334764969788	77.85848202583836	89.99411215952095	7.556710651436953	45.00000025534055	0	0	89.99333370518089	-81.21896182945676	-89.99396166161158	0.08086457397414534	45.00000025534055	0	0
51.175	-0.6696515707256046	19.96942968171277	-217.4788214742243	0	0.9399999999999999	0	3.9681981089687	5.447799418029727	-503.8100452239409	20.24574274027898	0.3533548703296074	7.606042807306242	0	0	-30.54312661887124	-5.037706590301815	510.8718714941308	4.095152358248746	0.07147389202225098	-19.87188536468396	0	0	89.98072245203672	89.9973797377007	89.98072260421031	89.99333734886804	77.83445822625258	89.99410005831112	7.538608699099353	45.00000025534055	0	0	89.99331639166975	-81.17373797614987	-89.99395411517162	0.08279575824969983	45.00000025534055	0	0
51.2	-0.67614556409277	20.05196447438021	-217.6944243214259	0	0.9399999999999999	0	0.5847850672917987	3.513942038418711	-506.9701499135168	28.195296449824	0.492100756625297	2.248091882194308	0	0	-28.75180138574818	-5.680941943847631	511.5282005760249	4.246389978209708	0.07411348644344966	-17.31087925647832	0	0	89.98056911676476	89.99737987158085	89.98056833551479	89.99338400152168	77.74680089524104	89.99414519300102	7.54737151764658	45.00000025534055	0	0	89.99336675666132	-81.09945529058368	-89.99399921534894	0.08150514658212593	45.00000025534055	0	0
51.225	-0.7743913403299386	20.11041004377463	-218.0269738227683	0	0.9399999999999999	0	-4.485032972881663	1.968226095797786	-509.162006181403	37.591778326499	0.6561003034772516	-2.367063174229094	0	0	-27.3602342744912	-5.914494017239513	511.493843129483	3.926201252197779	0.0685251389467755	-15.57598479342386	0	0	89.98025945291946	89.99738930614733	89.98025916893604	89.99346270153001	77.60511815318368	89.99421460149009	7.504881676636903	45.00000025534055	0	0	89.99344612205199	-80.92176111532609	-89.99407358280108	0.08116892519754217	45.00000025534055	0	0
51.25	-0.8233795506522401	20.14535889149055	-218.3769477503164	0	0.9399999999999999	0	-9.805479746791626	0.4336049687130817	-511.0240554483094	47.26711795614741	0.824966836263305	-5.066423548519066	0	0	-25.74631590508727	-6.446059539131114	511.1032408111403	3.352976238886779	0.05852047510971023	-14.16840486632167	0	0	89.97965146245029	89.99740711494204	89.97965112027954	89.99353691692963	77.46501171394164	89.99427932980859	7.507280073626359	45.00000025534055	0	0	89.99352022517526	-80.78670097355598	-89.99414328352132	0.08197111504951814	45.00000025534055	0	0
51.275	-0.8895066656072999	20.18839253025282	-218.583069430994	0	0.9399999999999999	0	-14.40346507437229	0.03314632775319482	-513.7490855519405	54.48180700886091	0.9508869147407464	-6.713432007069502	0	0	-24.40001335038671	-7.25554770759192	511.4425804807905	3.182075947963915	0.05553770234049006	-12.61524876119969	0	0	89.97878477876361	89.9974209002164	89.97878354692332	89.99358273515098	77.35253708035404	89.994320225455	7.488961946854777	45.00000025534055	0	0	89.99356494207014	-80.67800144093344	-89.99418755765454	0.08239563818986363	45.00000025534055	0	0
